<mxfile host="app.diagrams.net" modified="2024-07-09T12:45:19.475Z" agent="Mozilla/5.0 (Windows NT 10.0; Win64; x64) AppleWebKit/537.36 (KHTML, like Gecko) Chrome/126.0.0.0 Safari/537.36" etag="O47tFkKsGif5IEVcV79W" version="24.6.4" type="device">
  <diagram id="C5RBs43oDa-KdzZeNtuy" name="Page-1">
    <mxGraphModel dx="1985" dy="1135" grid="1" gridSize="10" guides="1" tooltips="1" connect="1" arrows="1" fold="1" page="1" pageScale="1" pageWidth="827" pageHeight="1169" math="0" shadow="0">
      <root>
        <mxCell id="WIyWlLk6GJQsqaUBKTNV-0" />
        <mxCell id="WIyWlLk6GJQsqaUBKTNV-1" parent="WIyWlLk6GJQsqaUBKTNV-0" />
        <mxCell id="WIyWlLk6GJQsqaUBKTNV-2" value="" style="rounded=0;html=1;jettySize=auto;orthogonalLoop=1;fontSize=11;endArrow=block;endFill=0;endSize=8;strokeWidth=1;shadow=0;labelBackgroundColor=none;edgeStyle=orthogonalEdgeStyle;entryX=0.5;entryY=0;entryDx=0;entryDy=0;" parent="WIyWlLk6GJQsqaUBKTNV-1" source="WIyWlLk6GJQsqaUBKTNV-3" target="AFgIYxSzn54l1ENfXICV-1" edge="1">
          <mxGeometry relative="1" as="geometry">
            <mxPoint x="220" y="170" as="targetPoint" />
          </mxGeometry>
        </mxCell>
        <mxCell id="WIyWlLk6GJQsqaUBKTNV-3" value="&lt;b&gt;Upload using &quot;Browse Files&quot;&lt;/b&gt;" style="rounded=1;whiteSpace=wrap;html=1;fontSize=12;glass=0;strokeWidth=1;shadow=0;" parent="WIyWlLk6GJQsqaUBKTNV-1" vertex="1">
          <mxGeometry x="140" y="40" width="160" height="80" as="geometry" />
        </mxCell>
        <mxCell id="WIyWlLk6GJQsqaUBKTNV-4" value="Yes" style="rounded=0;html=1;jettySize=auto;orthogonalLoop=1;fontSize=11;endArrow=block;endFill=0;endSize=8;strokeWidth=1;shadow=0;labelBackgroundColor=none;edgeStyle=orthogonalEdgeStyle;entryX=0.5;entryY=0;entryDx=0;entryDy=0;" parent="WIyWlLk6GJQsqaUBKTNV-1" edge="1">
          <mxGeometry x="0.1429" y="20" relative="1" as="geometry">
            <mxPoint as="offset" />
            <mxPoint x="220" y="280" as="sourcePoint" />
            <mxPoint x="220" y="350" as="targetPoint" />
          </mxGeometry>
        </mxCell>
        <mxCell id="WIyWlLk6GJQsqaUBKTNV-5" value="No" style="edgeStyle=orthogonalEdgeStyle;rounded=0;html=1;jettySize=auto;orthogonalLoop=1;fontSize=11;endArrow=block;endFill=0;endSize=8;strokeWidth=1;shadow=0;labelBackgroundColor=none;" parent="WIyWlLk6GJQsqaUBKTNV-1" edge="1">
          <mxGeometry x="-0.1724" y="26" relative="1" as="geometry">
            <mxPoint as="offset" />
            <mxPoint x="285" y="225" as="sourcePoint" />
            <mxPoint x="460" y="244" as="targetPoint" />
            <Array as="points">
              <mxPoint x="285" y="244" />
            </Array>
          </mxGeometry>
        </mxCell>
        <mxCell id="AFgIYxSzn54l1ENfXICV-1" value="&lt;b&gt;PDF/Word DOC?&lt;/b&gt;" style="rhombus;whiteSpace=wrap;html=1;shadow=0;fontFamily=Helvetica;fontSize=12;align=center;strokeWidth=1;spacing=6;spacingTop=-4;rotation=0;" vertex="1" parent="WIyWlLk6GJQsqaUBKTNV-1">
          <mxGeometry x="127.5" y="180" width="185" height="127.5" as="geometry" />
        </mxCell>
        <mxCell id="AFgIYxSzn54l1ENfXICV-6" style="edgeStyle=orthogonalEdgeStyle;rounded=0;orthogonalLoop=1;jettySize=auto;html=1;entryX=0;entryY=0.5;entryDx=0;entryDy=0;" edge="1" parent="WIyWlLk6GJQsqaUBKTNV-1" source="AFgIYxSzn54l1ENfXICV-4" target="AFgIYxSzn54l1ENfXICV-7">
          <mxGeometry relative="1" as="geometry">
            <mxPoint x="410" y="414" as="targetPoint" />
          </mxGeometry>
        </mxCell>
        <mxCell id="AFgIYxSzn54l1ENfXICV-4" value="&lt;b&gt;import libraries:&lt;/b&gt;&lt;div&gt;&lt;b&gt;transformers, nltk, spellchecker, docx,&amp;nbsp;&lt;/b&gt;&lt;/div&gt;&lt;div&gt;&lt;b&gt;streamlit&lt;/b&gt;&lt;/div&gt;" style="rhombus;whiteSpace=wrap;html=1;shadow=0;fontFamily=Helvetica;fontSize=12;align=center;strokeWidth=1;spacing=6;spacingTop=-4;rotation=0;" vertex="1" parent="WIyWlLk6GJQsqaUBKTNV-1">
          <mxGeometry x="127.5" y="350" width="185" height="127.5" as="geometry" />
        </mxCell>
        <mxCell id="AFgIYxSzn54l1ENfXICV-5" value="&lt;b&gt;Upload only PDF/WORD DOC&lt;/b&gt;" style="rounded=1;whiteSpace=wrap;html=1;fontSize=12;glass=0;strokeWidth=1;shadow=0;" vertex="1" parent="WIyWlLk6GJQsqaUBKTNV-1">
          <mxGeometry x="460" y="203.75" width="160" height="80" as="geometry" />
        </mxCell>
        <mxCell id="AFgIYxSzn54l1ENfXICV-7" value="&lt;b&gt;invoke pipeline&amp;nbsp;&lt;/b&gt;&lt;div&gt;&lt;b&gt;with&amp;nbsp;&lt;/b&gt;&lt;b style=&quot;background-color: initial;&quot;&gt;HF&amp;nbsp;&lt;span style=&quot;background-color: initial;&quot;&gt;model:&amp;nbsp;&lt;/span&gt;&lt;/b&gt;&lt;div&gt;&lt;b&gt;bart-base-grammar-&lt;/b&gt;&lt;/div&gt;&lt;div&gt;&lt;b&gt;synthesis&lt;/b&gt;&lt;/div&gt;&lt;/div&gt;" style="rhombus;whiteSpace=wrap;html=1;shadow=0;fontFamily=Helvetica;fontSize=12;align=center;strokeWidth=1;spacing=6;spacingTop=-4;rotation=0;" vertex="1" parent="WIyWlLk6GJQsqaUBKTNV-1">
          <mxGeometry x="447.5" y="350" width="185" height="127.5" as="geometry" />
        </mxCell>
        <mxCell id="AFgIYxSzn54l1ENfXICV-8" value="&lt;b&gt;Read document,&amp;nbsp;&lt;/b&gt;&lt;div&gt;&lt;b&gt;tokenize the sentence&lt;/b&gt;&lt;/div&gt;&lt;div&gt;&lt;b&gt;to list of words&lt;/b&gt;&lt;/div&gt;" style="rhombus;whiteSpace=wrap;html=1;shadow=0;fontFamily=Helvetica;fontSize=12;align=center;strokeWidth=1;spacing=6;spacingTop=-4;rotation=0;" vertex="1" parent="WIyWlLk6GJQsqaUBKTNV-1">
          <mxGeometry x="447.5" y="600" width="185" height="127.5" as="geometry" />
        </mxCell>
        <mxCell id="AFgIYxSzn54l1ENfXICV-10" value="" style="endArrow=classic;html=1;rounded=0;entryX=0.5;entryY=0;entryDx=0;entryDy=0;" edge="1" parent="WIyWlLk6GJQsqaUBKTNV-1" target="AFgIYxSzn54l1ENfXICV-8">
          <mxGeometry width="50" height="50" relative="1" as="geometry">
            <mxPoint x="540" y="477.5" as="sourcePoint" />
            <mxPoint x="573.93" y="600" as="targetPoint" />
            <Array as="points">
              <mxPoint x="540" y="527.5" />
            </Array>
          </mxGeometry>
        </mxCell>
        <mxCell id="AFgIYxSzn54l1ENfXICV-11" value="" style="endArrow=classic;html=1;rounded=0;exitX=0;exitY=0.5;exitDx=0;exitDy=0;entryX=1;entryY=0.5;entryDx=0;entryDy=0;" edge="1" parent="WIyWlLk6GJQsqaUBKTNV-1" source="AFgIYxSzn54l1ENfXICV-8" target="AFgIYxSzn54l1ENfXICV-12">
          <mxGeometry width="50" height="50" relative="1" as="geometry">
            <mxPoint x="380" y="650" as="sourcePoint" />
            <mxPoint x="320" y="664" as="targetPoint" />
            <Array as="points" />
          </mxGeometry>
        </mxCell>
        <mxCell id="AFgIYxSzn54l1ENfXICV-12" value="&lt;b&gt;pass it to the model&amp;nbsp;&lt;/b&gt;&lt;div&gt;&lt;b&gt;in chunks&lt;/b&gt;&lt;/div&gt;" style="rhombus;whiteSpace=wrap;html=1;shadow=0;fontFamily=Helvetica;fontSize=12;align=center;strokeWidth=1;spacing=6;spacingTop=-4;rotation=0;" vertex="1" parent="WIyWlLk6GJQsqaUBKTNV-1">
          <mxGeometry x="127.5" y="600" width="185" height="127.5" as="geometry" />
        </mxCell>
        <mxCell id="AFgIYxSzn54l1ENfXICV-13" value="&lt;div&gt;&lt;b style=&quot;background-color: initial;&quot;&gt;&lt;br&gt;&lt;/b&gt;&lt;/div&gt;&lt;div&gt;&lt;b style=&quot;background-color: initial;&quot;&gt;compare model&amp;nbsp;&lt;/b&gt;&lt;/div&gt;&lt;div&gt;&lt;b style=&quot;background-color: initial;&quot;&gt;output&amp;nbsp;&lt;/b&gt;&lt;b style=&quot;background-color: initial;&quot;&gt;with nltk corpus,&amp;nbsp;&lt;/b&gt;&lt;/div&gt;&lt;div&gt;&lt;b style=&quot;background-color: initial;&quot;&gt;spellChecker instance and local&amp;nbsp;&lt;/b&gt;&lt;/div&gt;&lt;div&gt;&lt;b style=&quot;background-color: initial;&quot;&gt;dataset&lt;/b&gt;&lt;/div&gt;" style="rhombus;whiteSpace=wrap;html=1;shadow=0;fontFamily=Helvetica;fontSize=12;align=center;strokeWidth=1;spacing=6;spacingTop=-4;rotation=0;" vertex="1" parent="WIyWlLk6GJQsqaUBKTNV-1">
          <mxGeometry x="127.5" y="850" width="185" height="127.5" as="geometry" />
        </mxCell>
        <mxCell id="AFgIYxSzn54l1ENfXICV-14" value="" style="endArrow=classic;html=1;rounded=0;entryX=0.5;entryY=0;entryDx=0;entryDy=0;" edge="1" parent="WIyWlLk6GJQsqaUBKTNV-1">
          <mxGeometry width="50" height="50" relative="1" as="geometry">
            <mxPoint x="219.51999999999998" y="727.5" as="sourcePoint" />
            <mxPoint x="219.51999999999998" y="850" as="targetPoint" />
            <Array as="points">
              <mxPoint x="219.51999999999998" y="777.5" />
            </Array>
          </mxGeometry>
        </mxCell>
        <mxCell id="AFgIYxSzn54l1ENfXICV-16" value="&lt;b&gt;underline if word is not present&lt;/b&gt;" style="rhombus;whiteSpace=wrap;html=1;shadow=0;fontFamily=Helvetica;fontSize=12;align=center;strokeWidth=1;spacing=6;spacingTop=-4;rotation=0;" vertex="1" parent="WIyWlLk6GJQsqaUBKTNV-1">
          <mxGeometry x="447.5" y="850" width="185" height="127.5" as="geometry" />
        </mxCell>
        <mxCell id="AFgIYxSzn54l1ENfXICV-17" value="&lt;b&gt;display model corrected output and the output with underlined words&lt;/b&gt;" style="rounded=1;whiteSpace=wrap;html=1;fontSize=12;glass=0;strokeWidth=1;shadow=0;" vertex="1" parent="WIyWlLk6GJQsqaUBKTNV-1">
          <mxGeometry x="460" y="1100" width="160" height="80" as="geometry" />
        </mxCell>
        <mxCell id="AFgIYxSzn54l1ENfXICV-18" style="edgeStyle=orthogonalEdgeStyle;rounded=0;orthogonalLoop=1;jettySize=auto;html=1;entryX=0;entryY=0.5;entryDx=0;entryDy=0;" edge="1" parent="WIyWlLk6GJQsqaUBKTNV-1">
          <mxGeometry relative="1" as="geometry">
            <mxPoint x="447.5" y="913.27" as="targetPoint" />
            <mxPoint x="311.5" y="913.27" as="sourcePoint" />
          </mxGeometry>
        </mxCell>
        <mxCell id="AFgIYxSzn54l1ENfXICV-19" value="" style="endArrow=classic;html=1;rounded=0;entryX=0.5;entryY=0;entryDx=0;entryDy=0;" edge="1" parent="WIyWlLk6GJQsqaUBKTNV-1">
          <mxGeometry width="50" height="50" relative="1" as="geometry">
            <mxPoint x="539.52" y="977.5" as="sourcePoint" />
            <mxPoint x="539.52" y="1100" as="targetPoint" />
            <Array as="points">
              <mxPoint x="539.52" y="1027.5" />
            </Array>
          </mxGeometry>
        </mxCell>
      </root>
    </mxGraphModel>
  </diagram>
</mxfile>
